<svg width="141" height="46" viewBox="0 0 141 46" fill="none" xmlns="http://www.w3.org/2000/svg">
<path d="M40.7882 29.7166C37.7568 29.7166 35.3083 27.1854 35.3083 24.0962C35.3083 21.0069 37.7762 18.4757 40.7882 18.4757C43.8196 18.4757 46.2681 21.0069 46.2681 24.0962C46.2681 27.1854 43.8196 29.7166 40.7882 29.7166Z" fill="#F9A51A"/>
<path d="M60.1815 37.4497V0H66.2832V14.1508C67.7795 11.7392 70.8498 10.0052 74.5419 10.0052C77.379 10.0052 79.7303 10.9818 81.6929 12.9151C83.6556 14.8284 84.6661 17.539 84.6661 21.1464V37.4497H78.4283V22.8605C78.4283 18.3761 76.1742 15.8648 72.7153 15.8648C69.0232 15.8648 66.4192 18.7747 66.4192 22.9601V37.4497H60.1815Z" fill="#E81A30"/>
<path d="M114.747 26.3683H94.8485C95.6647 30.0555 98.3658 32.5269 102.816 32.5269C105.983 32.5269 108.879 31.5901 111.424 29.7764L113.931 34.3605C110.705 36.8319 106.916 38.0476 102.583 38.0476C92.7887 38.0476 88.4554 31.1516 88.4554 24.0563C88.4554 20.0104 89.699 16.662 92.2058 14.0511C94.7514 11.3804 98.016 10.065 102 10.065C105.789 10.065 108.879 11.3007 111.269 13.7123C113.717 16.1239 114.922 19.3726 114.922 23.5182C114.941 24.2556 114.883 25.1924 114.747 26.3683ZM94.8485 21.4853H108.781C108.257 17.7383 105.614 15.4263 102 15.4263C98.3658 15.4263 95.6647 17.7383 94.8485 21.4853Z" fill="#E81A30"/>
<path d="M127.203 32.0884H141V37.4497H118.653V33.1248L132.158 16.1239H119.333V10.7426H140.514V14.9879L127.203 32.0884Z" fill="#E81A30"/>
<path d="M23.0077 10.6629H10.0853V17.2002H16.634V32.3674C16.634 36.9913 14.0689 39.7617 10.027 39.7617C7.4814 39.7617 5.1884 38.7054 3.24518 36.5728L0 41.6152C2.73994 44.5251 6.2183 46 10.4545 46C14.1272 46 17.1392 44.8639 19.4711 42.6118C21.8418 40.3796 23.0077 37.0312 23.0077 32.6465V10.6629Z" fill="#E81A30"/>
<path d="M40.7882 32.7461C36.1439 32.7461 32.3546 28.8596 32.3546 24.0962C32.3546 19.3328 36.1439 15.4463 40.7882 15.4463C45.4325 15.4463 49.2217 19.3328 49.2217 24.0962C49.2217 28.8596 45.4519 32.7461 40.7882 32.7461ZM49.2412 10.7028V13.0945C46.9093 11.221 43.9751 10.0849 40.7882 10.0849C33.2485 10.0849 27.1273 16.3631 27.1273 24.0962C27.1273 31.8293 33.2485 38.1074 40.7882 38.1074C43.9751 38.1074 46.9093 36.9913 49.2412 35.0979V37.4497H55.1291V10.7028H49.2412Z" fill="#E81A30"/>
</svg>
