<svg width="16" height="16" viewBox="0 0 16 16" fill="none" xmlns="http://www.w3.org/2000/svg">
<path d="M12.538 4.40565C12.7983 4.1453 12.7983 3.72319 12.538 3.46284C12.2777 3.20249 11.8555 3.20249 11.5952 3.46284L7.99994 7.05812L4.40467 3.46284C4.14433 3.20249 3.72221 3.20249 3.46187 3.46284C3.20151 3.72319 3.20151 4.1453 3.46187 4.40565L7.05714 8.00092L3.46187 11.5962C3.20151 11.8565 3.20151 12.2787 3.46187 12.539C3.72221 12.7993 4.14433 12.7993 4.40467 12.539L7.99994 8.94372L11.5952 12.539C11.8555 12.7993 12.2777 12.7993 12.538 12.539C12.7983 12.2787 12.7983 11.8565 12.538 11.5962L8.94274 8.00092L12.538 4.40565Z" fill="#3E3737"/>
</svg>
