<svg width="6" height="20" viewBox="0 0 6 20" fill="none" xmlns="http://www.w3.org/2000/svg">
<path d="M2.9781 0C3.85401 0 4.56934 0.291188 5.12409 0.873564C5.70803 1.45594 6 2.2069 6 3.12644C6 4.07663 5.70803 4.85824 5.12409 5.47126C4.56934 6.05364 3.85401 6.34483 2.9781 6.34483C2.13139 6.34483 1.41606 6.05364 0.832117 5.47126C0.277372 4.85824 0 4.07663 0 3.12644C0 2.2069 0.277372 1.45594 0.832117 0.873564C1.41606 0.291188 2.13139 0 2.9781 0ZM2.9781 13.6552C3.85401 13.6552 4.56934 13.9464 5.12409 14.5287C5.70803 15.1111 6 15.8621 6 16.7816C6 17.7318 5.70803 18.5134 5.12409 19.1264C4.56934 19.7088 3.85401 20 2.9781 20C2.13139 20 1.41606 19.7088 0.832117 19.1264C0.277372 18.5134 0 17.7318 0 16.7816C0 15.8621 0.277372 15.1111 0.832117 14.5287C1.41606 13.9464 2.13139 13.6552 2.9781 13.6552Z" fill="#3D3D3D"/>
</svg>
