<svg width="24" height="24" viewBox="0 0 24 24" fill="none" xmlns="http://www.w3.org/2000/svg">
<g clip-path="url(#clip0_146_10525)">
<path d="M20.7273 0H3.27273C1.46525 0 0 1.46525 0 3.27273V20.7273C0 22.5347 1.46525 24 3.27273 24H20.7273C22.5347 24 24 22.5347 24 20.7273V3.27273C24 1.46525 22.5347 0 20.7273 0Z" fill="#0077B5"/>
<path d="M8.6456 6.54545C8.6456 6.95001 8.52563 7.34547 8.30088 7.68185C8.07612 8.01822 7.75666 8.28039 7.3829 8.43521C7.00915 8.59002 6.59787 8.63053 6.20109 8.55161C5.80432 8.47268 5.43985 8.27787 5.15379 7.99181C4.86773 7.70575 4.67292 7.34128 4.59399 6.9445C4.51507 6.54772 4.55557 6.13645 4.71039 5.76269C4.8652 5.38894 5.12738 5.06948 5.46375 4.84472C5.80012 4.61996 6.19559 4.5 6.60014 4.5C7.14263 4.5 7.6629 4.7155 8.0465 5.0991C8.4301 5.4827 8.6456 6.00297 8.6456 6.54545Z" fill="white"/>
<path d="M8.18179 9.95454V18.9914C8.18215 19.058 8.16933 19.1241 8.14406 19.1858C8.1188 19.2475 8.08159 19.3036 8.03458 19.3509C7.98757 19.3981 7.93167 19.4356 7.87011 19.4612C7.80856 19.4868 7.74255 19.5 7.67588 19.5H5.51997C5.4533 19.5002 5.38726 19.4872 5.32563 19.4617C5.26401 19.4363 5.20801 19.399 5.16087 19.3518C5.11373 19.3047 5.07637 19.2487 5.05094 19.1871C5.02552 19.1254 5.01252 19.0594 5.0127 18.9927V9.95454C5.0127 9.82 5.06614 9.69097 5.16127 9.59584C5.25641 9.50071 5.38543 9.44727 5.51997 9.44727H7.67588C7.81018 9.44763 7.93886 9.50123 8.03369 9.59632C8.12853 9.69142 8.18179 9.82024 8.18179 9.95454Z" fill="white"/>
<path d="M19.4512 14.6587V19.0332C19.4514 19.0945 19.4395 19.1553 19.4161 19.2119C19.3927 19.2686 19.3584 19.3201 19.315 19.3634C19.2717 19.4068 19.2202 19.4411 19.1635 19.4645C19.1069 19.4878 19.0462 19.4998 18.9849 19.4996H16.6667C16.6054 19.4998 16.5447 19.4878 16.488 19.4645C16.4313 19.4411 16.3799 19.4068 16.3365 19.3634C16.2932 19.3201 16.2588 19.2686 16.2355 19.2119C16.2121 19.1553 16.2001 19.0945 16.2003 19.0332V14.7937C16.2003 14.161 16.3858 12.0228 14.5462 12.0228C13.1212 12.0228 12.8308 13.486 12.7735 14.1432V19.0332C12.7735 19.1558 12.7253 19.2734 12.6393 19.3606C12.5533 19.4479 12.4365 19.4978 12.314 19.4996H10.0749C10.0137 19.4996 9.95311 19.4875 9.8966 19.4641C9.8401 19.4406 9.78877 19.4062 9.74558 19.3629C9.70238 19.3196 9.66816 19.2682 9.64487 19.2116C9.62158 19.155 9.60969 19.0944 9.60987 19.0332V9.9146C9.60969 9.85342 9.62158 9.79281 9.64487 9.73624C9.66816 9.67966 9.70238 9.62824 9.74558 9.58492C9.78877 9.54159 9.8401 9.50722 9.8966 9.48376C9.95311 9.46031 10.0137 9.44824 10.0749 9.44824H12.314C12.4376 9.44824 12.5563 9.49737 12.6437 9.58483C12.7312 9.67229 12.7803 9.79091 12.7803 9.9146V10.7028C13.3094 9.90915 14.0935 9.29688 15.7667 9.29688C19.473 9.29688 19.4512 12.7578 19.4512 14.6587Z" fill="white"/>
</g>
<defs>
<clipPath id="clip0_146_10525">
<rect width="24" height="24" fill="white"/>
</clipPath>
</defs>
</svg>
