<?xml version="1.0" standalone="no"?>
<!DOCTYPE svg PUBLIC "-//W3C//DTD SVG 20010904//EN"
 "http://www.w3.org/TR/2001/REC-SVG-20010904/DTD/svg10.dtd">
<svg version="1.0" xmlns="http://www.w3.org/2000/svg"
 width="512.000000pt" height="512.000000pt" viewBox="0 0 512.000000 512.000000"
 preserveAspectRatio="xMidYMid meet">

<g transform="translate(0.000000,512.000000) scale(0.100000,-0.100000)"
fill="#5CECCE" stroke="none">
<path d="M1838 4631 l-33 -29 -3 -571 -2 -571 -861 0 c-934 0 -901 2 -927 -55
-17 -37 -17 -1653 0 -1690 26 -57 -7 -55 927 -55 l861 0 2 -571 3 -571 33 -29
c36 -32 69 -36 113 -14 16 9 489 311 1052 672 562 361 1263 810 1558 999 535
344 559 361 559 414 0 53 -24 70 -559 414 -295 189 -996 638 -1558 999 -563
361 -1036 663 -1052 672 -44 22 -77 18 -113 -14z m1589 -1167 c771 -494 1403
-901 1403 -904 0 -6 -2799 -1801 -2818 -1808 -9 -3 -12 113 -12 518 0 338 -4
528 -10 541 -27 50 -5 49 -930 49 l-860 0 0 700 0 700 860 0 c925 0 903 -1
930 49 6 13 10 203 10 541 0 405 3 521 12 518 7 -3 643 -409 1415 -904z"/>
</g>
</svg>
