<svg width="201" height="62" viewBox="0 0 201 62" fill="none" xmlns="http://www.w3.org/2000/svg">
<path fill-rule="evenodd" clip-rule="evenodd" d="M131.655 14.3701V25.6201C131.655 30.8001 127.471 35 122.309 35H98.4902V28.75H122.309C124.029 28.75 125.426 27.3501 125.426 25.6201V20.6299H98.4902V9.37988C98.4902 4.19988 102.667 0 107.838 0H128.545V6.25H107.838C106.116 6.25 104.719 7.64988 104.719 9.37988V14.3701H131.655Z" fill="#334961"/>
<path fill-rule="evenodd" clip-rule="evenodd" d="M52.254 9.37988V35H45.9828V9.37988C45.9828 7.64988 44.5768 6.25 42.8442 6.25H29.0757C29.4284 7.23 29.6153 8.27988 29.6153 9.37988V35H23.3441V9.37988C23.3441 7.64988 21.9381 6.25 20.2055 6.25H6.27121V35H0V0H20.2196C24.1311 0 27.4898 2.38002 28.9028 5.77002V0H42.8502C48.042 0 52.26 4.18988 52.26 9.37988H52.254Z" fill="#334961"/>
<path fill-rule="evenodd" clip-rule="evenodd" d="M81.9297 0H61.4608V6.25H81.9297C83.6834 6.25 85.1065 7.64988 85.1065 9.37988V13.75H67.8154C62.5532 13.75 58.29 17.9499 58.29 23.1299V25.6201C58.29 30.8001 62.5472 35 67.8154 35H91.455V9.37988C91.455 4.19988 87.1918 0 81.9297 0ZM85.0994 28.74H67.8094C66.0547 28.74 64.6316 27.3401 64.6316 25.6201V23.1201C64.6316 21.3901 66.0547 19.99 67.8094 19.99H85.0994V28.74Z" fill="#334961"/>
<path fill-rule="evenodd" clip-rule="evenodd" d="M201 0V6.25H188.302C186.562 6.25 185.162 7.64988 185.162 9.37988V35H178.89V9.37988C178.89 4.19988 183.096 0 188.302 0H201Z" fill="#334961"/>
<path fill-rule="evenodd" clip-rule="evenodd" d="M161.325 0H140.856V6.25H161.325C163.078 6.25 164.501 7.64988 164.501 9.37988V13.75H147.211C141.949 13.75 137.685 17.9499 137.685 23.1299V25.6201C137.685 30.8001 141.942 35 147.211 35H164.501H170.85V9.37988C170.85 4.19988 166.587 0 161.325 0ZM164.495 28.74H147.204C145.45 28.74 144.027 27.3401 144.027 25.6201V23.1201C144.027 21.3901 145.45 19.99 147.204 19.99H164.495V28.74Z" fill="#334961"/>
<path fill-rule="evenodd" clip-rule="evenodd" d="M139.431 45.9299C140.894 45.9299 142.139 46.47 143.173 47.55C144.206 48.62 144.72 49.93 144.72 51.47C144.72 53.01 144.206 54.3199 143.173 55.3899C142.139 56.4599 140.894 57 139.431 57C137.703 57 136.388 56.3099 135.482 54.9199V56.73H133.665V42H135.482V48.02C136.388 46.63 137.703 45.9299 139.431 45.9299ZM139.206 55.23C140.252 55.23 141.131 54.8699 141.838 54.1399C142.55 53.4199 142.904 52.53 142.904 51.46C142.904 50.4 142.55 49.5 141.838 48.78C141.125 48.05 140.252 47.6899 139.206 47.6899C138.159 47.6899 137.26 48.05 136.554 48.78C135.842 49.5 135.488 50.4 135.488 51.46C135.488 52.53 135.842 53.4199 136.554 54.1399C137.267 54.8699 138.146 55.23 139.206 55.23Z" fill="#5CEDCE"/>
<path fill-rule="evenodd" clip-rule="evenodd" d="M154.721 46.01H156.78L152.269 58.1299C151.793 59.4299 151.134 60.4101 150.291 61.0901C149.442 61.7601 148.464 62.06 147.362 61.99V60.1399C148.715 60.2399 149.707 59.47 150.338 57.8L150.549 57.3701L145.725 46H147.783L151.474 54.76L154.728 46L154.721 46.01Z" fill="#5CEDCE"/>
<path fill-rule="evenodd" clip-rule="evenodd" d="M163.727 46L162.81 46.95V49.2L171.055 55.6799V56.2H164.615V55.1499H162.81V57.05L163.727 58H171.944L172.86 57.05V54.8301L164.615 48.3201V47.8H171.055V48.8501H172.86V46.95L171.944 46H163.727Z" fill="#5CEDCE"/>
<path fill-rule="evenodd" clip-rule="evenodd" d="M184.005 46H175.787L174.87 46.95V48.8601H176.675V47.8101H183.115V48.23L174.87 54.5801V57.05L175.787 58H181.357L183.115 56.23V58H184.92V46.96L184.005 46.01V46ZM183.115 56.1899H176.675V55.3601L183.115 50.27V56.1899Z" fill="#5CEDCE"/>
<path fill-rule="evenodd" clip-rule="evenodd" d="M190.494 46L188.742 47.78V46H186.93V58H188.742V47.8H195.175V58H196.98V46.95L196.065 46H190.494Z" fill="#5CEDCE"/>
<path fill-rule="evenodd" clip-rule="evenodd" d="M198.99 49H201V58H198.99V49Z" fill="#5CEDCE"/>
<path fill-rule="evenodd" clip-rule="evenodd" d="M201 48H198.99V46H199.906C200.333 46.43 200.565 46.6601 200.992 47.0801V47.99L201 48Z" fill="#5CEDCE"/>
</svg>
