<svg width="1008" height="309" viewBox="0 0 1008 309" fill="none" xmlns="http://www.w3.org/2000/svg">
<path fill-rule="evenodd" clip-rule="evenodd" d="M662 72.6599V129.57C662 155.77 640.807 177 614.652 177H494V145.39H614.652C623.37 145.39 630.446 138.34 630.446 129.57V104.31H494V47.4301C494 21.2301 515.159 0 541.349 0H646.24V31.61H541.349C532.63 31.61 525.554 38.6701 525.554 47.4301V72.7H662V72.6599Z" fill="#5CEDCE"/>
<path fill-rule="evenodd" clip-rule="evenodd" d="M262.967 47.42V177H231.408V47.42C231.408 38.69 224.332 31.61 215.612 31.61H146.324C148.101 36.54 149.04 41.85 149.04 47.42V177H117.482V47.42C117.482 38.69 110.405 31.61 101.686 31.61H31.559V177H0V0H101.753C121.439 0 138.342 12.0599 145.452 29.1899V0H215.645C241.771 0 263 21.19 263 47.42H262.967Z" fill="#5CEDCE"/>
<path fill-rule="evenodd" clip-rule="evenodd" d="M412.608 0H310.775V31.61H412.608C421.335 31.61 428.417 38.69 428.417 47.42V69.52H342.392C316.212 69.52 295 90.75 295 116.95V129.58C295 155.77 316.179 177 342.392 177H460V47.42C460 21.23 438.788 0 412.608 0ZM428.383 145.36H342.359C333.632 145.36 326.55 138.28 326.55 129.54V116.91C326.55 108.18 333.632 101.1 342.359 101.1H428.383V145.33V145.36Z" fill="#5CEDCE"/>
<path fill-rule="evenodd" clip-rule="evenodd" d="M1008 0V31.61H944.25C935.52 31.61 928.49 38.69 928.49 47.42V177H897V47.42C897 21.23 918.12 0 944.25 0H1008Z" fill="#5CEDCE"/>
<path fill-rule="evenodd" clip-rule="evenodd" d="M811.608 0H709.775V31.61H811.608C820.335 31.61 827.42 38.69 827.42 47.42V69.52H741.393C715.212 69.52 694 90.75 694 116.95V129.58C694 155.77 715.179 177 741.393 177H827.42H859V47.42C859 21.23 837.79 0 811.608 0ZM827.38 145.36H741.359C732.632 145.36 725.55 138.28 725.55 129.54V116.91C725.55 108.18 732.632 101.1 741.359 101.1H827.38V145.33V145.36Z" fill="#5CEDCE"/>
<path fill-rule="evenodd" clip-rule="evenodd" d="M700.246 229.72C707.926 229.72 714.46 232.56 719.883 238.21C725.306 243.86 728 250.74 728 258.86C728 266.98 725.306 273.86 719.883 279.51C714.46 285.16 707.926 288 700.246 288C691.186 288 684.281 284.36 679.532 277.04V286.56H670V209H679.532V240.68C684.281 233.36 691.186 229.72 700.246 229.72ZM699.067 278.68C704.557 278.68 709.172 276.77 712.877 272.96C716.616 269.15 718.468 264.44 718.468 258.83C718.468 253.21 716.616 248.5 712.877 244.69C709.138 240.88 704.557 238.98 699.067 238.98C693.577 238.98 688.862 240.88 685.157 244.69C681.418 248.5 679.566 253.21 679.566 258.83C679.566 264.44 681.418 269.15 685.157 272.96C688.895 276.77 693.51 278.68 699.067 278.68Z" fill="#5CEDCE"/>
<path fill-rule="evenodd" clip-rule="evenodd" d="M775.757 231.03H786L763.554 290.14C761.188 296.45 757.909 301.25 753.717 304.55C749.492 307.84 744.623 309.31 739.147 308.94V299.91C745.874 300.42 750.81 296.65 753.953 288.53L755.001 286.44L731 231H741.243L759.599 273.68L775.791 231L775.757 231.03Z" fill="#5CEDCE"/>
<path fill-rule="evenodd" clip-rule="evenodd" d="M825.56 231L821 236V247.79L862.02 281.81V284.54H829.98V279.04H821V289L825.56 294H866.44L871 289V277.35L829.98 243.19V240.46H862.02V245.96H871V236L866.44 231H825.56Z" fill="#5CEDCE"/>
<path fill-rule="evenodd" clip-rule="evenodd" d="M923.44 231H882.56L878 236V245.99H886.98V240.49H919.02V242.72L878 276.04V289L882.56 294H910.27L919.02 284.68V294H928V236.03L923.44 231.03V231ZM919.02 284.51H886.98V280.16L919.02 253.42V284.51Z" fill="#5CEDCE"/>
<path fill-rule="evenodd" clip-rule="evenodd" d="M955.73 231L947.01 240.32V231H938V294H947.01V240.46H979.02V294H988V236L983.44 231H955.73Z" fill="#5CEDCE"/>
<path fill-rule="evenodd" clip-rule="evenodd" d="M999 246H1008V294H999V246Z" fill="#5CEDCE"/>
<path fill-rule="evenodd" clip-rule="evenodd" d="M1008 240H999V231H1003.1C1005.01 232.91 1006.05 233.96 1007.97 235.87V239.97L1008 240Z" fill="#5CEDCE"/>
</svg>
